<?xml version="1.0" standalone="no"?>
<!DOCTYPE svg PUBLIC "-//W3C//DTD SVG 20010904//EN"
 "http://www.w3.org/TR/2001/REC-SVG-20010904/DTD/svg10.dtd">
<svg version="1.0" xmlns="http://www.w3.org/2000/svg"
 width="533.000000pt" height="116.000000pt" viewBox="0 0 533.000000 116.000000"
 preserveAspectRatio="xMidYMid meet">

<g transform="translate(0.000000,116.000000) scale(0.100000,-0.100000)"
fill="#d2d2d2" stroke="none">
<path d="M2360 915 c0 -22 4 -25 40 -25 l40 0 0 -134 c0 -120 2 -136 21 -160
19 -24 27 -27 73 -24 43 3 51 6 51 23 0 16 -7 20 -33 20 -18 1 -37 7 -42 15
-6 8 -10 81 -10 163 l0 147 -70 0 c-68 0 -70 -1 -70 -25z"/>
<path d="M3560 915 c0 -22 4 -25 40 -25 l40 0 0 -134 c0 -120 2 -136 21 -160
19 -24 27 -27 73 -24 43 3 51 6 51 23 0 16 -7 20 -33 20 -18 1 -37 7 -42 15
-6 8 -10 81 -10 163 l0 147 -70 0 c-68 0 -70 -1 -70 -25z"/>
<path d="M3860 915 c0 -22 4 -25 40 -25 l40 0 0 -134 c0 -120 2 -136 21 -160
19 -24 27 -27 73 -24 43 3 51 6 51 23 0 16 -7 20 -33 20 -18 1 -37 7 -42 15
-6 8 -10 81 -10 163 l0 147 -70 0 c-68 0 -70 -1 -70 -25z"/>
<path d="M280 740 l0 -170 35 0 35 0 0 60 0 60 35 0 c80 0 135 45 135 110 0
74 -55 110 -170 110 l-70 0 0 -170z m154 104 c20 -20 20 -68 0 -88 -8 -9 -31
-16 -50 -16 l-34 0 0 60 0 60 34 0 c19 0 42 -7 50 -16z"/>
<path d="M2944 873 c7 -42 36 -283 36 -295 0 -4 17 -8 39 -8 l38 0 13 112 c14
120 22 121 34 3 12 -111 13 -115 52 -115 38 0 34 -13 59 180 9 63 17 125 19
138 3 18 -1 22 -25 22 -34 0 -36 -6 -45 -137 -3 -57 -10 -101 -14 -98 -4 3
-11 35 -14 72 -12 117 -14 123 -47 123 -33 0 -33 0 -50 -130 -6 -47 -12 -86
-14 -88 -2 -3 -9 78 -18 236 -1 18 -7 22 -35 22 -33 0 -34 0 -28 -37z"/>
<path d="M4530 860 c0 -27 -3 -30 -30 -30 -25 0 -30 -4 -30 -25 0 -21 5 -25
30 -25 l30 0 0 -79 c0 -105 18 -131 93 -131 61 0 80 10 71 34 -5 14 -14 16
-39 12 -51 -10 -65 11 -65 95 l0 69 39 0 c26 0 41 5 45 16 11 29 6 34 -39 34
-43 0 -45 1 -45 30 0 27 -3 30 -30 30 -27 0 -30 -3 -30 -30z"/>
<path d="M645 830 c-40 -16 -68 -58 -73 -110 -9 -94 35 -150 119 -150 58 0 99
14 99 34 0 23 -18 28 -55 16 -42 -14 -83 3 -96 38 -8 22 -7 22 83 22 l91 0 -6
45 c-8 57 -24 81 -63 100 -35 16 -68 18 -99 5z m83 -52 c7 -7 12 -22 12 -35 0
-21 -4 -23 -55 -23 l-55 0 11 27 c6 15 16 31 22 35 18 12 52 9 65 -4z"/>
<path d="M1010 810 c-28 -30 -40 -30 -40 2 0 15 -8 18 -45 18 -41 0 -45 -2
-45 -25 0 -18 5 -25 20 -25 18 0 20 -7 20 -80 0 -73 -2 -80 -20 -80 -15 0 -20
-7 -20 -25 0 -25 2 -25 78 -25 76 0 77 0 77 25 0 21 -5 25 -27 25 -26 0 -28 3
-28 40 0 63 31 110 71 110 5 0 9 -9 9 -20 0 -13 7 -20 19 -20 15 0 20 10 25
45 9 55 3 65 -36 65 -20 0 -39 -9 -58 -30z"/>
<path d="M1230 827 c-14 -7 -31 -24 -38 -39 -21 -44 0 -73 72 -101 69 -26 84
-51 39 -68 -21 -8 -36 -7 -65 4 -33 14 -38 13 -53 -3 -14 -16 -14 -18 1 -30
22 -19 127 -25 163 -10 17 7 35 25 42 42 19 47 -3 78 -76 104 -44 16 -60 26
-60 40 0 23 42 30 85 16 19 -7 31 -7 39 1 18 18 13 27 -24 43 -42 17 -92 18
-125 1z"/>
<path d="M1524 821 c-41 -25 -58 -68 -52 -138 4 -48 10 -61 37 -85 25 -23 41
-28 80 -28 85 0 132 64 117 163 -14 91 -105 135 -182 88z m98 -48 c26 -24 25
-116 -2 -143 -25 -25 -32 -25 -61 -1 -20 16 -24 28 -23 74 0 30 6 62 13 71 17
21 50 20 73 -1z"/>
<path d="M1866 819 c-21 -17 -26 -18 -26 -5 0 11 -9 16 -30 16 l-30 0 0 -131
0 -130 31 3 30 3 2 94 c2 79 6 95 22 107 11 8 29 13 40 12 18 -3 20 -12 23
-110 l3 -108 29 0 30 0 0 119 c0 113 -1 121 -22 135 -31 22 -70 20 -102 -5z"/>
<path d="M2112 829 c-15 -5 -22 -15 -20 -26 3 -15 12 -18 53 -15 56 3 69 -3
79 -35 7 -21 4 -23 -34 -23 -108 0 -162 -75 -102 -142 19 -22 100 -24 128 -4
16 13 21 12 36 -1 10 -8 24 -13 31 -10 12 4 14 24 10 99 -6 105 -17 137 -53
155 -29 15 -95 16 -128 2z m116 -166 c-6 -54 -98 -66 -98 -13 0 24 26 39 68
40 30 0 33 -2 30 -27z"/>
<path d="M3312 829 c-15 -5 -22 -15 -20 -26 3 -15 12 -18 53 -15 56 3 69 -3
79 -35 7 -21 4 -23 -34 -23 -108 0 -162 -75 -102 -142 19 -22 100 -24 128 -4
16 13 21 12 36 -1 10 -8 24 -13 31 -10 12 4 14 24 10 99 -6 105 -17 137 -53
155 -29 15 -95 16 -128 2z m116 -166 c-6 -54 -98 -66 -98 -13 0 24 26 39 68
40 30 0 33 -2 30 -27z"/>
<path d="M4245 830 c-40 -16 -68 -58 -73 -110 -9 -94 35 -150 119 -150 58 0
99 14 99 34 0 23 -18 28 -55 16 -42 -14 -83 3 -96 38 -8 22 -7 22 81 22 89 0
90 0 90 25 0 13 -7 42 -16 64 -23 58 -91 86 -149 61z m83 -52 c7 -7 12 -22 12
-35 0 -21 -4 -23 -55 -23 l-55 0 11 27 c6 15 16 31 22 35 18 12 52 9 65 -4z"/>
</g>
</svg>
