<?xml version="1.0" standalone="no"?>
<!DOCTYPE svg PUBLIC "-//W3C//DTD SVG 20010904//EN"
 "http://www.w3.org/TR/2001/REC-SVG-20010904/DTD/svg10.dtd">
<svg version="1.0" xmlns="http://www.w3.org/2000/svg"
 width="510.000000pt" height="304.000000pt" viewBox="0 0 510.000000 304.000000"
 preserveAspectRatio="xMidYMid meet">

<g transform="translate(0.000000,304.000000) scale(0.100000,-0.100000)"
fill="#000000" stroke="none">
<path d="M1398 2821 c-72 -15 -79 -19 -111 -61 l-34 -45 -7 -822 -7 -822 40
-21 c22 -11 45 -20 50 -20 6 0 342 -153 748 -340 719 -331 739 -340 800 -340
75 0 122 24 146 75 13 28 17 64 17 165 0 126 1 130 23 134 12 3 92 15 177 26
85 12 158 24 162 26 5 3 8 23 8 45 l0 39 48 1 c26 0 64 6 86 12 34 11 40 18
61 73 23 60 23 74 39 821 l17 760 -35 59 c-31 52 -43 62 -83 77 -55 19 -1840
178 -1984 176 -46 -1 -119 -9 -161 -18z m557 -71 c3 -5 2 -10 -4 -10 -5 0 -13
5 -16 10 -3 6 -2 10 4 10 5 0 13 -4 16 -10z m195 -15 c36 -4 85 -8 110 -10 25
-2 72 -7 105 -10 33 -4 85 -9 115 -11 30 -3 82 -8 115 -11 33 -3 84 -7 113 -7
28 -1 52 -4 52 -7 0 -3 35 -9 78 -12 42 -4 208 -20 367 -37 160 -16 293 -30
298 -30 4 0 7 -5 7 -11 0 -7 -18 -8 -52 -5 -29 4 -136 15 -238 25 -722 74
-1178 126 -1174 133 3 5 13 7 22 4 10 -3 46 -8 82 -11z m567 -131 c-3 -3 -12
-4 -19 -1 -8 3 -5 6 6 6 11 1 17 -2 13 -5z m-1213 -15 c-2 -3 108 -41 244 -83
399 -125 1216 -387 1221 -392 21 -21 -75 7 -520 150 -879 283 -1028 333 -983
332 23 -1 40 -4 38 -7z m616 -9 c184 -11 369 -22 410 -25 66 -4 575 -35 586
-35 7 0 4 -1450 -3 -1451 -5 0 -21 -3 -37 -5 l-29 -5 6 523 c7 626 11 603 -89
624 -33 6 -94 23 -135 38 -40 14 -148 48 -239 76 -91 28 -241 75 -335 105 -93
30 -217 68 -275 86 -58 18 -143 45 -190 60 -106 36 -114 35 330 9z m1100 -522
c2 -139 3 -446 4 -682 1 -422 1 -429 -19 -432 -11 -2 -47 -6 -80 -9 -33 -4
-63 -9 -67 -11 -12 -8 -20 16 -13 45 6 26 11 29 68 37 l62 9 3 648 c2 624 3
647 21 647 17 0 19 -14 21 -252z m377 115 c-3 -10 -5 -2 -5 17 0 19 2 27 5 18
2 -10 2 -26 0 -35z m-257 -160 c1 -98 3 -406 6 -684 5 -415 3 -506 -8 -506
-20 -1 -121 -14 -138 -18 -8 -2 -42 -7 -75 -10 -32 -4 -63 -9 -67 -11 -4 -3
-8 13 -8 35 0 45 -10 41 144 61 43 6 82 13 88 16 6 4 8 231 3 650 l-6 644 31
0 30 0 0 -177z m-2033 -70 c-2 -32 -3 -8 -3 52 0 61 1 87 3 58 2 -29 2 -78 0
-110z m1676 -1103 c4 -165 -4 -380 -13 -380 -7 0 -9 261 -8 768 l1 767 10
-550 c5 -302 10 -575 10 -605z m604 853 c-3 -10 -5 -2 -5 17 0 19 2 27 5 18 2
-10 2 -26 0 -35z m-590 -90 c-2 -16 -4 -3 -4 27 0 30 2 43 4 28 2 -16 2 -40 0
-55z m410 -225 c-2 -29 -3 -8 -3 47 0 55 1 79 3 53 2 -26 2 -71 0 -100z m170
-165 c-3 -10 -5 -2 -5 17 0 19 2 27 5 18 2 -10 2 -26 0 -35z"/>
</g>
</svg>
